<svg width="22" height="25" viewBox="0 0 22 25" fill="none" xmlns="http://www.w3.org/2000/svg">
<path d="M12.4746 23.4974C12.4912 23.3951 12.4989 23.2916 12.4975 23.188L12.4975 5.55097L12.6764 5.93555C12.8543 6.31146 13.0965 6.65345 13.3919 6.94619L18.3377 11.892C18.9596 12.5434 19.9599 12.6529 20.7078 12.1514C21.5049 11.5678 21.6779 10.4485 21.0943 9.65143C21.0471 9.58703 20.9957 9.52583 20.9404 9.46831L11.9967 0.524617C11.2985 -0.174332 10.166 -0.174947 9.467 0.523219C9.46656 0.523667 9.46605 0.52417 9.46561 0.524617L0.521917 9.46831C-0.175635 10.1678 -0.174071 11.3004 0.525438 11.998C0.580497 12.0529 0.639078 12.1041 0.70079 12.1514C1.44876 12.6529 2.44906 12.5434 3.07087 11.892L8.02567 6.95513C8.28839 6.69269 8.50869 6.39095 8.67856 6.06076L8.92004 5.52414L8.92004 23.0895C8.88611 24.0033 9.52441 24.805 10.4226 24.9767C11.3977 25.1348 12.3164 24.4725 12.4746 23.4974Z" fill="white"/>
</svg>
