<?xml version="1.0" encoding="utf-8"?><svg viewBox="0 0 25 25" xmlns="http://www.w3.org/2000/svg" xmlns:xlink="http://www.w3.org/1999/xlink"><style>:root>svg{display:none}:root>svg:target{display:block}</style><svg fill="none" viewBox="0 0 22 25" id="arrow" xmlns="http://www.w3.org/2000/svg"><path d="M12.475 23.497c.016-.102.024-.205.023-.309V5.551l.178.385c.178.375.42.717.716 1.01l4.946 4.946c.622.651 1.622.76 2.37.26a1.789 1.789 0 00.232-2.684L11.997.525a1.789 1.789 0 00-2.53-.002l-.001.002L.522 9.468A1.789 1.789 0 00.7 12.151a1.851 1.851 0 002.37-.259l4.955-4.937c.262-.262.483-.564.653-.894l.241-.537V23.09a1.851 1.851 0 001.503 1.887 1.789 1.789 0 002.052-1.48z" fill="#fff"/></svg><svg fill="none" viewBox="0 0 25 25" id="phone" xmlns="http://www.w3.org/2000/svg"><path d="M24.196 18c-.069-.054-5.03-3.63-6.391-3.373-.65.115-1.022.558-1.767 1.446-.12.143-.409.486-.633.73A11.417 11.417 0 018.202 9.6c.245-.225.588-.513.735-.637.883-.741 1.327-1.113 1.442-1.765.236-1.35-3.337-6.345-3.375-6.39A1.908 1.908 0 005.584 0C4.134 0 0 5.364 0 6.268c0 .052.076 5.389 6.657 12.083C13.344 24.924 18.68 25 18.733 25 19.637 25 25 20.865 25 19.417A1.902 1.902 0 0024.196 18z" fill="#fff"/></svg></svg>