<svg width="32" height="32" viewBox="0 0 32 32" fill="none" xmlns="http://www.w3.org/2000/svg">
<path d="M27.0227 4.97709C24.4217 2.3501 20.9675 0.73905 17.2833 0.434541C13.599 0.130033 9.92719 1.15211 6.93014 3.31641C3.9331 5.48072 1.80811 8.64477 0.93848 12.2379C0.068849 15.8309 0.511824 19.6165 2.1875 22.9118L0.542615 30.8975C0.525547 30.977 0.525064 31.0592 0.541195 31.1389C0.557326 31.2185 0.589725 31.294 0.636364 31.3606C0.704688 31.4617 0.802216 31.5395 0.915924 31.5836C1.02963 31.6278 1.15411 31.6362 1.27273 31.6078L9.09943 29.7527C12.3854 31.3859 16.1443 31.8004 19.7072 30.9224C23.27 30.0443 26.4059 27.9308 28.5567 24.9577C30.7075 21.9846 31.7338 18.3449 31.4529 14.6862C31.172 11.0274 29.6022 7.58702 27.0227 4.97709ZM24.5824 24.4544C22.7827 26.249 20.4653 27.4336 17.9567 27.8413C15.4481 28.2491 12.8748 27.8594 10.5994 26.7271L9.50853 26.1873L4.71023 27.3237L4.72443 27.264L5.71875 22.4345L5.18466 21.3805C4.02205 19.0972 3.61192 16.5045 4.01303 13.9738C4.41414 11.4431 5.60591 9.10432 7.41762 7.29243C9.69405 5.0167 12.7811 3.73827 16 3.73827C19.2189 3.73827 22.306 5.0167 24.5824 7.29243C24.6018 7.31466 24.6227 7.33555 24.6449 7.35493C26.8931 9.63653 28.1482 12.7144 28.1365 15.9175C28.1248 19.1207 26.8472 22.1893 24.5824 24.4544Z" fill="white"/>
<path d="M24.1564 20.9116C23.5683 21.8377 22.6394 22.9712 21.4717 23.2525C19.4263 23.7468 16.2871 23.2695 12.3808 19.6275L12.3325 19.5849C8.89788 16.4002 8.00584 13.7496 8.22175 11.6474C8.34107 10.4542 9.33538 9.37463 10.1735 8.67008C10.3059 8.557 10.4631 8.47649 10.6322 8.43498C10.8014 8.39348 10.978 8.39214 11.1477 8.43107C11.3175 8.46999 11.4759 8.54811 11.6101 8.65917C11.7443 8.77022 11.8506 8.91114 11.9206 9.07065L13.1848 11.9116C13.267 12.0958 13.2974 12.2989 13.2729 12.4991C13.2484 12.6992 13.1698 12.889 13.0456 13.0479L12.4064 13.8775C12.2693 14.0488 12.1865 14.2572 12.1688 14.4759C12.151 14.6946 12.1992 14.9136 12.307 15.1047C12.6649 15.7326 13.5229 16.6559 14.4746 17.511C15.5428 18.4769 16.7274 19.3604 17.4774 19.6616C17.6781 19.7435 17.8988 19.7636 18.1109 19.719C18.3231 19.6744 18.517 19.5674 18.6678 19.4116L19.4092 18.6644C19.5523 18.5233 19.7302 18.4227 19.9249 18.3728C20.1195 18.3229 20.3239 18.3255 20.5172 18.3803L23.52 19.2326C23.6857 19.2834 23.8375 19.3714 23.9639 19.4899C24.0903 19.6084 24.188 19.7542 24.2494 19.9162C24.3108 20.0782 24.3343 20.2522 24.3182 20.4247C24.3021 20.5972 24.2468 20.7637 24.1564 20.9116Z" fill="white"/>
</svg>
