<svg width="22" height="20" viewBox="0 0 22 20" fill="none" xmlns="http://www.w3.org/2000/svg">
<path d="M21.7762 0.223803C21.6357 0.0797191 21.4426 -0.00106031 21.2414 1.05121e-05H0.75863C0.557372 -0.00106031 0.364323 0.0797191 0.223803 0.223803C0.0797191 0.364323 -0.00106031 0.557372 1.05121e-05 0.75863V16.6896C-0.00106031 16.8909 0.0797191 17.0839 0.223803 17.2245C0.364323 17.3686 0.557372 17.4493 0.75863 17.4483H20.862C21.4905 17.4483 22 16.9388 22 16.3103V0.75863C22.001 0.557372 21.9203 0.364323 21.7762 0.223803Z" fill="#F3D55B"/>
<path d="M21.9998 0.758643V16.3103C21.9998 16.6121 21.8797 16.9014 21.666 17.1145L20.1033 15.5517V1.89657L21.776 0.223816C21.9201 0.364335 22.0009 0.557385 21.9998 0.758643Z" fill="#F0C419"/>
<path d="M1.89656 1.89657V15.5517L0.223803 17.2245C0.0797191 17.084 -0.00106031 16.8909 1.05121e-05 16.6897V0.758643C-0.00106031 0.557385 0.0797191 0.364335 0.223803 0.223816L1.89656 1.89657Z" fill="#F0C419"/>
<path d="M21.6663 17.1144C21.4532 17.3281 21.1639 17.4482 20.8621 17.4482H0.758704C0.557446 17.4493 0.364397 17.3685 0.223877 17.2244L1.89663 15.5516H20.1035L21.6663 17.1144Z" fill="#F29C1F"/>
<path d="M1.89673 1.89655H20.1036V15.5517H1.89673V1.89655Z" fill="#ECF0F1"/>
<path d="M20.1036 1.89655C20.1036 1.89655 1.89673 1.89655 1.89673 15.5517V1.89655H20.1036Z" fill="white"/>
<path d="M13.6552 4.55171H8.34489C8.1354 4.55171 7.96558 4.38189 7.96558 4.1724C7.96558 3.96291 8.1354 3.79309 8.34489 3.79309H13.6552C13.8647 3.79309 14.0345 3.96291 14.0345 4.1724C14.0345 4.38189 13.8647 4.55171 13.6552 4.55171Z" fill="#BDC3C7"/>
<path d="M9.86201 12.8966H4.55167C4.34219 12.8966 4.17236 12.7267 4.17236 12.5172C4.17236 12.3078 4.34219 12.1379 4.55167 12.1379H9.86201C10.0715 12.1379 10.2413 12.3078 10.2413 12.5172C10.2413 12.7267 10.0715 12.8966 9.86201 12.8966Z" fill="#95A5A5"/>
<path d="M14.7931 6.44832H7.20695C6.99746 6.44832 6.82764 6.27849 6.82764 6.06901C6.82764 5.85952 6.99746 5.6897 7.20695 5.6897H14.7931C15.0026 5.6897 15.1725 5.85952 15.1725 6.06901C15.1725 6.27849 15.0026 6.44832 14.7931 6.44832Z" fill="#BDC3C7"/>
<path d="M13.2759 14.1862L13.2759 19.1096C13.275 19.2417 13.3429 19.3648 13.4552 19.4345C13.5674 19.5042 13.7079 19.5104 13.8259 19.451L14.8121 18.9541C14.9197 18.901 15.0459 18.901 15.1535 18.9541L16.1397 19.451C16.2577 19.5104 16.3981 19.5042 16.5104 19.4345C16.6227 19.3648 16.6906 19.2417 16.6897 19.1096L16.6897 14.1862H13.2759Z" fill="#FF5364"/>
<path d="M9.86201 11.3793C8.93322 11.3793 8.02013 11.1397 7.21101 10.6836C6.40054 11.1438 5.48366 11.3837 4.55167 11.3793C4.34219 11.3793 4.17236 11.2095 4.17236 11C4.17236 10.7905 4.34219 10.6207 4.55167 10.6207C5.23156 10.6237 5.90365 10.4759 6.51953 10.1879C6.12585 9.8861 5.87405 9.43532 5.8235 8.94186C5.8235 8.71427 5.92326 7.96552 7.20684 7.96552C8.49043 7.96552 8.59018 8.71276 8.59018 8.94186C8.53989 9.43594 8.28826 9.88748 7.89453 10.1902C8.51063 10.4769 9.18248 10.6239 9.86201 10.6207C10.0715 10.6207 10.2413 10.7905 10.2413 11C10.2413 11.2095 10.0715 11.3793 9.86201 11.3793ZM7.20684 8.72413C6.91857 8.72413 6.58212 8.78103 6.58212 8.94186C6.58212 9.10269 6.75243 9.42662 7.20381 9.77406C7.60739 9.46531 7.83156 9.14251 7.83156 8.94186C7.83156 8.78103 7.49512 8.72413 7.20684 8.72413Z" fill="#95A5A5"/>
<path d="M18.586 11.569C18.586 12.0063 17.7694 12.2775 17.6116 12.658C17.4481 13.0521 17.8274 13.8202 17.5304 14.1172C17.2334 14.4142 16.4653 14.0349 16.0716 14.198C15.6911 14.3557 15.4199 15.1724 14.9826 15.1724C14.5452 15.1724 14.274 14.3557 13.8936 14.198C13.4995 14.0345 12.7314 14.4138 12.4344 14.1168C12.1374 13.8198 12.5167 13.0517 12.3536 12.658C12.1958 12.2775 11.3792 12.0063 11.3792 11.569C11.3792 11.1316 12.1958 10.8604 12.3536 10.48C12.5171 10.0859 12.1378 9.31775 12.4348 9.02075C12.7318 8.72376 13.4999 9.10307 13.8936 8.93996C14.2729 8.78217 14.5452 7.96552 14.9826 7.96552C15.4199 7.96552 15.6911 8.78217 16.0716 8.93996C16.4657 9.10344 17.2338 8.72414 17.5308 9.02113C17.8278 9.31813 17.4485 10.0862 17.6116 10.48C17.7694 10.8604 18.586 11.1316 18.586 11.569Z" fill="#FB7B76"/>
<path d="M14.9829 12.8966C15.7161 12.8966 16.3104 12.3022 16.3104 11.569C16.3104 10.8358 15.7161 10.2414 14.9829 10.2414C14.2497 10.2414 13.6553 10.8358 13.6553 11.569C13.6553 12.3022 14.2497 12.8966 14.9829 12.8966Z" fill="#DF4D60"/>
</svg>
